<?xml version="1.0" standalone="no"?>
<!DOCTYPE svg PUBLIC "-//W3C//DTD SVG 20010904//EN"
 "http://www.w3.org/TR/2001/REC-SVG-20010904/DTD/svg10.dtd">
<svg version="1.0" xmlns="http://www.w3.org/2000/svg"
 width="500.000000pt" height="500.000000pt" viewBox="0 0 500.000000 500.000000"
 preserveAspectRatio="xMidYMid meet">
<metadata>
Created by potrace 1.14, written by Peter Selinger 2001-2017
</metadata>
<g transform="translate(0.000000,500.000000) scale(0.100000,-0.100000)"
fill="#000000" stroke="none">
<path d="M0 2500 l0 -2500 2500 0 2500 0 0 2500 0 2500 -2500 0 -2500 0 0
-2500z m4731 2464 c170 -50 226 -287 97 -410 -56 -53 -86 -71 -141 -85 -39 -9
-56 -23 -114 -91 -129 -151 -144 -166 -201 -195 -45 -23 -58 -36 -66 -62 -13
-45 -89 -127 -131 -141 -29 -10 -36 -18 -49 -64 -28 -97 -90 -160 -167 -172
-21 -4 -40 -13 -44 -21 -3 -10 41 -78 120 -183 100 -133 131 -169 154 -173 43
-9 86 -51 111 -109 18 -43 22 -65 17 -121 -6 -87 -40 -141 -111 -176 -45 -23
-53 -24 -104 -13 -116 24 -178 75 -203 165 -8 30 -42 70 -155 182 l-145 144
-15 -25 c-25 -37 -36 -103 -28 -171 l6 -63 -140 -159 -140 -158 40 -49 c22
-27 51 -60 65 -73 40 -38 77 -128 81 -199 3 -48 13 -80 42 -136 51 -99 182
-501 214 -656 54 -266 61 -366 61 -875 0 -528 -3 -505 74 -544 52 -27 98 -75
106 -110 8 -38 -14 -82 -57 -112 -27 -20 -43 -23 -102 -21 -145 4 -231 52
-280 155 -22 48 -27 67 -40 149 -4 22 -673 847 -1092 1345 l-53 63 -341 -385
c-188 -212 -344 -385 -349 -385 -4 0 -22 11 -41 25 -19 14 -35 25 -36 25 -1 0
6 -25 14 -55 l15 -55 -39 -47 c-60 -70 -64 -71 -118 -34 -26 18 -50 30 -53 27
-3 -3 1 -35 10 -71 l14 -67 -44 -41 c-222 -205 -574 -415 -848 -507 -149 -49
-165 -50 -165 -10 0 182 220 744 395 1010 168 255 699 847 955 1065 l86 73 28
-21 28 -20 -16 31 c-9 17 -13 38 -10 46 4 10 -203 268 -616 768 -498 603 -626
753 -643 751 -135 -11 -214 10 -290 77 -62 55 -87 110 -87 190 0 96 26 167 72
196 55 35 93 32 118 -8 11 -18 25 -50 30 -70 14 -51 54 -95 98 -108 20 -6 147
-15 282 -21 599 -23 731 -48 1155 -216 259 -103 362 -152 476 -229 96 -64 98
-65 148 -58 62 8 94 -9 111 -61 9 -28 22 -41 63 -61 29 -14 68 -42 88 -61 l37
-35 117 121 c113 116 119 121 159 121 48 0 186 39 186 52 0 6 -43 56 -94 112
-79 85 -102 104 -139 113 -65 18 -121 83 -137 159 -31 148 38 265 172 289 115
21 267 -98 268 -210 0 -24 15 -45 68 -98 37 -37 83 -79 102 -92 l35 -26 16 39
c19 44 69 80 123 89 30 5 35 10 45 47 22 86 96 160 172 172 33 6 39 11 55 53
22 58 108 146 152 156 24 5 36 15 46 38 18 43 72 96 122 118 35 16 43 25 49
56 19 101 95 177 202 202 57 14 84 13 144 -5z"/>
<path d="M711 3879 c25 -30 298 -361 608 -736 309 -376 566 -683 569 -683 11
0 164 158 310 321 72 80 160 171 196 203 37 32 82 78 102 102 35 42 36 45 23
77 -16 38 -106 137 -126 137 -24 0 -63 47 -63 77 0 25 -11 35 -118 95 -493
280 -973 436 -1407 455 l-140 6 46 -54z"/>
<path d="M2690 2195 c-162 -184 -295 -339 -295 -345 0 -7 250 -315 555 -685
l555 -673 12 61 c39 200 36 512 -7 777 -43 265 -142 605 -250 857 -48 112 -55
122 -75 117 -16 -4 -28 2 -44 22 -11 15 -21 33 -21 40 0 7 -12 19 -27 26 -15
8 -39 37 -57 72 -17 33 -36 61 -41 62 -6 2 -143 -147 -305 -331z"/>
</g>
</svg>
